<?xml version="1.0" standalone="no"?><!DOCTYPE svg PUBLIC "-//W3C//DTD SVG 1.1//EN" "http://www.w3.org/Graphics/SVG/1.1/DTD/svg11.dtd"><svg t="1679165595481" class="icon" viewBox="0 0 1024 1024" version="1.1" xmlns="http://www.w3.org/2000/svg" p-id="74124" xmlns:xlink="http://www.w3.org/1999/xlink" width="200" height="200"><path d="M950.315 950.315c-12.92 12.92-33.869 12.92-46.789 0L722.443 769.232c-47.495 31.179-102.313 52.119-161.325 59.654C560.42 835.154 560 841.58 560 848c0 5.372 0.586 10.734 1.578 16H736c17.673 0 32 14.327 32 32v52c0 6.627-5.373 12-12 12H268c-6.627 0-12-5.373-12-12v-52c0-17.673 14.327-32 32-32h174.422c0.992-5.266 1.578-10.628 1.578-16 0-6.42-0.42-12.846-1.117-19.115C274.001 804.77 128 643.436 128 448c0-77.701 23.096-149.999 62.773-210.438L73.685 120.475c-12.921-12.921-12.921-33.869 0-46.789s33.869-12.921 46.789 0l829.84 829.84c12.921 12.92 12.921 33.868 0.001 46.789z m-422.18-375.391A129.51 129.51 0 0 1 511.5 576C440.531 576 383 518.469 383 447.5c0-5.638 0.371-11.189 1.076-16.635l-75.867-75.867C295.253 383.328 288 414.811 288 448c0 123.712 100.288 224 224 224 33.189 0 64.672-7.253 93.002-20.208l-76.867-76.868zM640 447.5c0 10.035-1.152 19.8-3.328 29.172L482.328 322.328A128.856 128.856 0 0 1 511.5 319c70.969 0 128.5 57.531 128.5 128.5z m70.97 103.47C726.958 520.14 736 485.128 736 448c0-123.712-100.288-224-224-224-37.128 0-72.14 9.042-102.97 25.03L292.742 132.742C354.912 89.423 430.481 64 512 64c212.077 0 384 171.923 384 384 0 81.519-25.418 157.093-68.738 219.262L710.97 550.97zM512 96c-53.019 0-96 10.745-96 24s42.981 40 96 40 96-26.745 96-40-42.981-24-96-24z" p-id="74125" fill="#409EFF"></path></svg>