<?xml version="1.0" standalone="no"?><!DOCTYPE svg PUBLIC "-//W3C//DTD SVG 1.1//EN" "http://www.w3.org/Graphics/SVG/1.1/DTD/svg11.dtd"><svg t="1679298973380" class="icon" viewBox="0 0 1024 1024" version="1.1" xmlns="http://www.w3.org/2000/svg" p-id="2355" xmlns:xlink="http://www.w3.org/1999/xlink" width="200" height="200"><path d="M514.986667 112c80.170667 0 145.109333 62.08 145.109333 138.666667v277.248c0 76.586667-64.938667 138.624-145.066667 138.624-80.213333 0-145.152-62.08-145.152-138.624V250.666667c0-76.586667 64.981333-138.666667 145.109334-138.666667z m236.970666 411.221333c0 118.485333-93.013333 215.893333-212.608 228.992v135.637334a24.149333 24.149333 0 0 1-48.341333 0v-135.04c-122.709333-10.24-219.008-109.013333-219.008-229.546667v-96.426667a24.704 24.704 0 0 1 49.408 0v109.184c0 98.56 83.712 169.088 190.592 169.088 106.837333 0 196.309333-92.8 196.309333-169.088V423.936a21.845333 21.845333 0 0 1 43.690667 0v99.285333z" fill="#409EFF" p-id="2356"></path></svg>