<?xml version="1.0" standalone="no"?><!DOCTYPE svg PUBLIC "-//W3C//DTD SVG 1.1//EN" "http://www.w3.org/Graphics/SVG/1.1/DTD/svg11.dtd"><svg t="1682054122199" class="icon" viewBox="0 0 1024 1024" version="1.1" xmlns="http://www.w3.org/2000/svg" p-id="1540" xmlns:xlink="http://www.w3.org/1999/xlink" width="200" height="200"><path d="M512 816.128a304.128 304.128 0 1 1 304.128-304.128 304.4864 304.4864 0 0 1-304.128 304.128z m0-577.536a273.408 273.408 0 1 0 273.408 273.408A273.7664 273.7664 0 0 0 512 238.592z" fill="#099DFD" p-id="1541"></path><path d="M512 512m-96.512 0a96.512 96.512 0 1 0 193.024 0 96.512 96.512 0 1 0-193.024 0Z" fill="#D20000" p-id="1542"></path><path d="M512 623.872A111.872 111.872 0 1 1 623.872 512 111.9744 111.9744 0 0 1 512 623.872z m0-193.024A81.152 81.152 0 1 0 593.152 512 81.2544 81.2544 0 0 0 512 430.848z" fill="#D20000" p-id="1543"></path></svg>