<?xml version="1.0" standalone="no"?><!DOCTYPE svg PUBLIC "-//W3C//DTD SVG 1.1//EN" "http://www.w3.org/Graphics/SVG/1.1/DTD/svg11.dtd"><svg t="1679299019062" class="icon" viewBox="0 0 1024 1024" version="1.1" xmlns="http://www.w3.org/2000/svg" p-id="2961" xmlns:xlink="http://www.w3.org/1999/xlink" width="200" height="200"><path d="M850.048 213.333333a24.746667 24.746667 0 0 1 24.618667 24.917334v515.370666a24.746667 24.746667 0 0 1-24.618667 24.917334h-278.997333l14.805333 49.877333h45.781333a33.792 33.792 0 1 1 0 67.584H392.362667a33.792 33.792 0 1 1 0-67.584h45.781333l14.805333-49.877333h-279.04a24.746667 24.746667 0 0 1-24.576-24.917334V238.250667A24.746667 24.746667 0 0 1 173.952 213.333333h676.096zM507.733333 736.554667a34.133333 34.133333 0 1 0 0.042667-68.266667 34.133333 34.133333 0 0 0-0.042667 68.266667z m-290.901333-97.578667H808.96V285.056H216.832v353.92z" fill="#409EFF" p-id="2962"></path></svg>