<?xml version="1.0" standalone="no"?><!DOCTYPE svg PUBLIC "-//W3C//DTD SVG 1.1//EN" "http://www.w3.org/Graphics/SVG/1.1/DTD/svg11.dtd"><svg t="1679300661837" class="icon" viewBox="0 0 1024 1024" version="1.1" xmlns="http://www.w3.org/2000/svg" p-id="3163" xmlns:xlink="http://www.w3.org/1999/xlink" width="200" height="200"><path d="M873.770667 314.922667c19.797333-12.202667 37.632-2.048 37.632 18.304v335.232c0 24.362667-15.872 32.512-37.632 18.261333l-112.938667-67.029333c-19.797333-12.202667-37.632-26.453333-37.632-46.72V424.618667c0-18.261333 17.834667-30.464 37.632-42.666667l112.938667-67.029333zM207.232 288h391.936c43.562667 0 79.232 32 79.232 71.125333v305.749334c0 39.125333-35.669333 71.125333-79.232 71.125333H207.232C163.669333 736 128 704 128 664.874667V359.125333C128 320 163.669333 288 207.232 288z" fill="#409EFF" p-id="3164"></path></svg>