<svg viewBox="0 0 240 240" xmlns:xlink="http://www.w3.org/1999/xlink" xmlns="http://www.w3.org/2000/svg"><defs><style>.f8d8bad4-92c6-41f2-a308-84b4758bee35{fill:url(#ad0747e6-f28d-4136-b265-de85aa0e1cac);}.e21aaaf7-38dd-43e4-8a18-9eaec2508229{fill:url(#e9c57e34-4528-40fc-8108-31344da0dc6c);}.f910f699-0a3a-4613-87b5-28d40c2aa810{fill:url(#fe5ad6e5-edee-4923-a901-9c806bc61852);}.a81762ae-a318-4843-ab7b-aa4d1a71dedc{fill:url(#a94f7437-6793-4e09-b25e-28809bfc18a9);}.af0ef9eb-313f-4ead-a79d-c64e2f323393{fill:url(#b32119df-9502-472f-b761-fd586743845a);}.aff859cb-d96c-40ea-9d5c-c2085a295fe4{fill:url(#ffab7019-87e8-405e-9f73-b328d9fb1842);}.aefb0da5-b312-4131-8c38-a7a54a667373{fill:url(#b96faf4f-ac4c-4bc5-a437-c19cddb33f79);}.a3b251f0-5710-4b5a-92e6-83c5f110dfff{fill:url(#ab18c841-3746-4c4c-a599-669f01b384a5);}.a9db16e8-9aa7-4a34-a56c-d6b198322484{fill:url(#f70981bb-3d7f-4831-aa50-2e793cc53dc4);}.bcf3acef-a180-44bf-83e4-3be428934543,.e4f8fa64-c0e4-4341-88a0-98f2379802cd,.ee842990-a783-4f71-9352-181fdfa6977e{fill:none;}.e4f8fa64-c0e4-4341-88a0-98f2379802cd,.ee842990-a783-4f71-9352-181fdfa6977e{stroke:#f2f6fa;}.ee842990-a783-4f71-9352-181fdfa6977e{stroke-miterlimit:10;}.e4f8fa64-c0e4-4341-88a0-98f2379802cd{stroke-linecap:round;stroke-linejoin:round;stroke-width:2px;}.fc042f53-9314-489d-a954-16fd5aaf811c{fill:#f2f2f2;}.bc5f0052-bbd2-4aef-9021-3e89341f20de{fill:#dfdfdf;}.a032204c-443b-43fe-8381-e9ee1e9bbfd0{fill:url(#a0dca5bf-4370-4c27-be90-86be56992c1d);}.ac828730-a5ff-4648-8f0f-7d746cd3d92f{fill:url(#fb4b7be8-23b9-450e-87a4-bed4a801d0df);}.f681f4f7-7266-4e22-bddf-222ee23f1a83{fill:#fff;opacity:0.76;}.e8eddd11-32df-40d6-83dd-29ee4cc1df52{fill:url(#aa93fdf4-cdc3-4c51-b2ca-4d3954271254);}.b2152b7b-bc29-40fc-b464-5c3b9b7c9417{fill:#fef2e3;}.e3311e2e-1f20-4d84-9c09-01cbf997c3fa{fill:#222b55;}.b60cf42b-99ce-460d-b346-33c21beb6833{fill:#bebebe;}.b8e74200-a507-40b4-9f8e-c3b85a248ed9{fill:#f4b37a;}.a3c4dd92-268f-4878-bf31-1e0e3317ac8c{fill:#8faded;}.f0a15ae0-e702-4e23-9bc8-4496399a535f{fill:#e9e9e9;}.bf2ccddc-b0c4-441d-aa4d-598f95b253f0{fill:#494949;}.e35bb54a-16bd-4dd3-9bab-0ac463c209fe{fill:#cfcfcf;}.a261c311-75b4-4829-9999-55a8f2319ed3{fill:#ff9f8f;}.b870a518-00f4-4e93-90d5-52e1edfbdea3{fill:#fed54c;}.b7ce22a3-e52b-4740-a4e1-fe1b87ff4f99{fill:#fdfdfc;}.b976a635-4814-417b-a533-4ce389a56a77{fill:#fefdfd;}.f824bb19-9287-4889-a088-63a334be6082{fill:#45487a;}</style><linearGradient gradientUnits="userSpaceOnUse" y2="58.71" x2="94.36" y1="89.51" x1="117.22" id="ad0747e6-f28d-4136-b265-de85aa0e1cac"><stop stop-opacity="0" stop-color="#f2f6fa" offset="0"></stop><stop stop-color="#e6e6e6" offset="0.7"></stop></linearGradient><linearGradient xlink:href="#ad0747e6-f28d-4136-b265-de85aa0e1cac" gradientTransform="matrix(-1, 0, 0, 1, 217.38, 0)" y2="58.71" x2="68.49" y1="89.51" x1="91.35" id="e9c57e34-4528-40fc-8108-31344da0dc6c"></linearGradient><linearGradient gradientUnits="userSpaceOnUse" gradientTransform="translate(200.12 -72.61) rotate(-42.67)" y2="59.27" x2="-249.97" y1="59.27" x1="-270.9" id="fe5ad6e5-edee-4923-a901-9c806bc61852"><stop stop-opacity="0" stop-color="#f2f6fa" offset="0"></stop><stop stop-opacity="0.5" stop-color="#e6e6e6" offset="0.7"></stop></linearGradient><linearGradient xlink:href="#fe5ad6e5-edee-4923-a901-9c806bc61852" gradientTransform="matrix(1, 0, 0, 1, 0, 0)" y2="138.53" x2="222.23" y1="138.53" x1="186.4" id="a94f7437-6793-4e09-b25e-28809bfc18a9"></linearGradient><linearGradient gradientUnits="userSpaceOnUse" y2="62.85" x2="120" y1="297.85" x1="120" id="b32119df-9502-472f-b761-fd586743845a"><stop stop-opacity="0" stop-color="#f4f4f4" offset="0"></stop><stop stop-opacity="0.7" stop-color="#dfdfdf" offset="0.69"></stop></linearGradient><linearGradient xlink:href="#fe5ad6e5-edee-4923-a901-9c806bc61852" gradientTransform="matrix(1, 0, 0, 1, 0, 0)" y2="51.8" x2="86.06" y1="51.8" x1="23.32" id="ffab7019-87e8-405e-9f73-b328d9fb1842"></linearGradient><linearGradient xlink:href="#fe5ad6e5-edee-4923-a901-9c806bc61852" gradientTransform="matrix(1, 0, 0, 1, 0, 0)" y2="35.95" x2="193.02" y1="35.95" x1="156.51" id="b96faf4f-ac4c-4bc5-a437-c19cddb33f79"></linearGradient><linearGradient gradientUnits="userSpaceOnUse" y2="124.03" x2="134.33" y1="210.46" x1="149.34" id="ab18c841-3746-4c4c-a599-669f01b384a5"><stop stop-opacity="0" stop-color="#dfdfdf" offset="0.2"></stop><stop stop-color="#ccc" offset="0.83"></stop></linearGradient><linearGradient gradientUnits="userSpaceOnUse" gradientTransform="matrix(0, 0.29, -0.21, 0, 213.99, 870.23)" y2="309.6" x2="-2423.24" y1="214.21" x1="-2380.37" id="f70981bb-3d7f-4831-aa50-2e793cc53dc4"><stop stop-opacity="0.6" stop-color="#ccc" offset="0"></stop><stop stop-opacity="0" stop-color="#dfdfdf" offset="1"></stop></linearGradient><linearGradient gradientUnits="userSpaceOnUse" y2="120.41" x2="191.15" y1="120.41" x1="167.62" id="a0dca5bf-4370-4c27-be90-86be56992c1d"><stop stop-color="#fff" offset="0"></stop><stop stop-color="#94c4ff" offset="1"></stop></linearGradient><linearGradient gradientUnits="userSpaceOnUse" y2="120.41" x2="175.87" y1="120.41" x1="67.38" id="fb4b7be8-23b9-450e-87a4-bed4a801d0df"><stop stop-color="#dfdfdf" offset="0"></stop><stop stop-color="#e7e7e7" offset="0.32"></stop><stop stop-color="#ccc" offset="1"></stop></linearGradient><linearGradient gradientUnits="userSpaceOnUse" y2="120.41" x2="133.09" y1="120.41" x1="110.16" id="aa93fdf4-cdc3-4c51-b2ca-4d3954271254"><stop stop-opacity="0.7" stop-color="#dfdfdf" offset="0.69"></stop><stop stop-color="#f4f4f4" offset="1"></stop></linearGradient></defs><title>缺省页2号博学堂后台</title><g id="e50917e2-cab3-4a9d-b53a-4143bc5ebadd"><path d="M108.65,84.3l-1.22.37A2.83,2.83,0,0,1,103.92,83L96.25,60.62A2.59,2.59,0,0,1,98,57.32L99.27,57a2.83,2.83,0,0,1,3.5,1.69L110.45,81A2.59,2.59,0,0,1,108.65,84.3Z" class="f8d8bad4-92c6-41f2-a308-84b4758bee35"></path><path d="M134.6,84.3l1.22.37A2.83,2.83,0,0,0,139.33,83L147,60.62a2.6,2.6,0,0,0-1.79-3.3L144,57a2.83,2.83,0,0,0-3.5,1.69L132.8,81A2.59,2.59,0,0,0,134.6,84.3Z" class="e21aaaf7-38dd-43e4-8a18-9eaec2508229"></path><path d="M47.44,160.3c-4.32-2.87-9.81-8.87-9.94-13.13a2.53,2.53,0,0,1,1.72,1.08s9.67,12.69,5,2.2c-2.2-5-5-9.9-6.49-14.76C35,126.81,42,126.53,47,136.87c.66,1.36,4.74,12.13,6.94,11.65a.78.78,0,0,0,.52-.6c.66-1.86.13-5,2.26-5.14,1.87-.1,4.44,2.35,6.12,4.62,3.38,4.6,5.42,11.35,1.75,13.4s-11.43,3.28-17.07-.47Z" class="f910f699-0a3a-4613-87b5-28d40c2aa810"></path><path d="M210,131.34s-13.31,15.49-12.88,29.81h4.3S202.94,143.88,210,131.34Zm10.68-20.71c-2.95,3.7-4.84,8.94-3.07,13.63,1.22,3.23,4.9,3.25,4.64,7.74a14.49,14.49,0,0,1-2.25,6.29,47.68,47.68,0,0,1-7.61,10,8.77,8.77,0,0,1,3.3,8.12,14.62,14.62,0,0,1-4.17,8.1,5.76,5.76,0,0,1-2.47,1.77,6.19,6.19,0,0,1-2.84,0A49.16,49.16,0,0,1,192.9,162c-2.62-1.24-5.29-2.94-6.18-5.66-1-3.11.6-4.1,2.37-5.08l.46-.25a6,6,0,0,0,2.35-1.94c1.3-2.12,1.33-5,1.79-7.33.67-3.49-.32-9.85,4.06-11.22,1.69-.53,3.53-.41,5.23-1,3.68-1.17,5.2-4.62,6.67-8.11l.27-.64a21,21,0,0,1,3-5.5C214.81,113.19,219.41,112.13,220.64,110.63Z" class="a81762ae-a318-4843-ab7b-aa4d1a71dedc"></path><path d="M237.5,191.31c-16-24-44.43-51.95-117.5-46-91.26,7.44-111.92,35-116.35,44.36a5.34,5.34,0,0,0-1.15,3.14c0,12.43,52.61,22.5,117.5,22.5s117.5-10.07,117.5-22.5a4.66,4.66,0,0,0-.27-1.5Z" class="af0ef9eb-313f-4ead-a79d-c64e2f323393"></path><path d="M23.35,61.4c1.19-4.36,5.85-17.58,17.3-9.52,0,0,6.4-21.19,25.67-4.53,0,0,9.78-6.14,14.59,6,0,0,6,2.52,5,7.55L24.37,62.63A1,1,0,0,1,23.35,61.4Z" class="aff859cb-d96c-40ea-9d5c-c2085a295fe4"></path><path d="M156.51,41.57s3.08-8.64,8.23-5.35c0,0,5.89-11,16.73-2.88,0,0,5.1-1.48,7.81,4.49,0,0,2.68-.45,3.74,1.54Z" class="aefb0da5-b312-4131-8c38-a7a54a667373"></path><path d="M69.8,156.12s11.19,36.93,75.92,42.8l69.83-10.87s-22.34-24.94-35.83-29.78C149.46,147.41,69.8,156.12,69.8,156.12Z" class="a3b251f0-5710-4b5a-92e6-83c5f110dfff"></path><ellipse transform="translate(-18.17 316.63) rotate(-86.89)" ry="15.26" rx="3.33" cy="167.91" cx="158.07" class="a9db16e8-9aa7-4a34-a56c-d6b198322484"></ellipse><circle r="5" cy="72.28" cx="195.37" class="ee842990-a783-4f71-9352-181fdfa6977e"></circle><line y2="24.69" x2="78.96" y1="31.76" x1="71.89" class="e4f8fa64-c0e4-4341-88a0-98f2379802cd"></line><line y2="24.69" x2="71.89" y1="31.76" x1="78.96" class="e4f8fa64-c0e4-4341-88a0-98f2379802cd"></line><path d="M28.88,164.74s-10.47-10.32-4.58-8.69,8.51,8.14,8.51,8.14-2.62-11.4,3.28-10.86,1.31,10.32,1.31,10.32S34.12,171.8,28.88,164.74Z" class="fc042f53-9314-489d-a954-16fd5aaf811c"></path><path d="M208,160.31s4-14,6-14,5,14,5,14S215,165.31,208,160.31Z" class="bc5f0052-bbd2-4aef-9021-3e89341f20de"></path><rect rx="1" height="10" width="2" y="159.31" x="212.5" class="bc5f0052-bbd2-4aef-9021-3e89341f20de"></rect><path d="M217.39,174.23s2.26-7.92,3.39-7.92,2.83,7.92,2.83,7.92S221.35,177.05,217.39,174.23Z" class="bc5f0052-bbd2-4aef-9021-3e89341f20de"></path><rect rx="0.57" height="5.65" width="1.13" y="173.66" x="219.93" class="bc5f0052-bbd2-4aef-9021-3e89341f20de"></rect><path d="M191.15,141.3a2.35,2.35,0,0,1-1.12,2.12,2.24,2.24,0,0,1-2.61,0l-19.8-10.62V108.37l19.8-11a2.26,2.26,0,0,1,2.61,0,2.37,2.37,0,0,1,1.12,2.12Z" class="a032204c-443b-43fe-8381-e9ee1e9bbfd0"></path><rect rx="8.77" height="78.34" width="108.48" y="81.24" x="67.38" class="ac828730-a5ff-4648-8f0f-7d746cd3d92f"></rect><rect rx="6.53" height="55.83" width="84.39" y="92.5" x="79.43" class="f681f4f7-7266-4e22-bddf-222ee23f1a83"></rect><path d="M131.54,123.1l-16.73,9.65a3.1,3.1,0,0,1-4.65-2.68V110.76a3.1,3.1,0,0,1,4.65-2.69l16.73,9.66A3.11,3.11,0,0,1,131.54,123.1Z" class="e8eddd11-32df-40d6-83dd-29ee4cc1df52"></path><path d="M150.2,160.71h0Z" class="bcf3acef-a180-44bf-83e4-3be428934543"></path><path d="M157.78,142.69a7.68,7.68,0,0,0,1.14-1.14s.08,0,.12,0a.18.18,0,0,1,0-.2,7.25,7.25,0,0,0,.8-2.77c0-.19,0-.39.3-.36.14,0,.22-.14.27-.28a6,6,0,0,0,.3-1.74.46.46,0,0,0-.17-.41.88.88,0,0,0-.45.61c-.09.27-.28.3-.52.28s-.24-.24-.24-.42a6.76,6.76,0,0,0-.12-1.49.82.82,0,0,0-.88-.74,8.13,8.13,0,0,0-1.57.21,3.28,3.28,0,0,1-1.17-.1,4,4,0,0,0-.46-.08c-1-.08-1.49.41-1.54,1.47a5.81,5.81,0,0,0,0,.59.3.3,0,0,1-.28.35.3.3,0,0,1-.39-.21,1.64,1.64,0,0,0-.67-.71h0c-.13.1-.28.2-.29.38a3.22,3.22,0,0,0,.28,1.76c.05.1.11.23.21.22.35,0,.32.19.32.41a3.75,3.75,0,0,0,.05.47,5.48,5.48,0,0,0,.47,2.21c.07.13.11.29.17.43.41.42.83.84,1.23,1.27A2,2,0,0,0,157.78,142.69Z" class="b2152b7b-bc29-40fc-b464-5c3b9b7c9417"></path><path d="M160.46,131.9a3,3,0,0,0-1.81-2.15,4.25,4.25,0,0,0-2.83-.33,5.13,5.13,0,0,0-2.06.82,3.86,3.86,0,0,0-1.56,3.31c0,.65,0,1.31.07,2h0a1.64,1.64,0,0,1,.67.71.3.3,0,0,0,.39.21.3.3,0,0,0,.28-.35,5.81,5.81,0,0,1,0-.59c0-1.06.55-1.55,1.54-1.47a4,4,0,0,1,.46.08,3.28,3.28,0,0,0,1.17.1,8.13,8.13,0,0,1,1.57-.21.82.82,0,0,1,.88.74,6.76,6.76,0,0,1,.12,1.49c0,.18,0,.39.24.42s.43,0,.52-.28a.88.88,0,0,1,.45-.61.56.56,0,0,0,0-.12A22.17,22.17,0,0,0,160.46,131.9Z" class="e3311e2e-1f20-4d84-9c09-01cbf997c3fa"></path><path d="M160,169.54c.72.09,1.45.1,2.17.12a18.91,18.91,0,0,0,2.82-.2h0a.19.19,0,0,1,0-.08,3.05,3.05,0,0,0-.9.08,16.44,16.44,0,0,1-3.29.06,2.18,2.18,0,0,0-.88,0l0,0Z" class="b60cf42b-99ce-460d-b346-33c21beb6833"></path><path d="M150.46,168.79c.33.12.64.31,1,.44h.16a4.32,4.32,0,0,0-1.13-.48h0A.08.08,0,0,0,150.46,168.79Z" class="b60cf42b-99ce-460d-b346-33c21beb6833"></path><path d="M167.22,154a15.44,15.44,0,0,0-1.8.17.14.14,0,0,1-.14,0,5.2,5.2,0,0,0-.17,2.15h0a6.44,6.44,0,0,0,.64,1.07c.11.13.06.18-.07.24l-.81.38a6,6,0,0,0-.12,1.27,10.25,10.25,0,0,0,0,1.11,6.69,6.69,0,0,1,3.63-1.5,5,5,0,0,1,2.1.1h0a1.05,1.05,0,0,1,0-.43,3.94,3.94,0,0,0-.33-1.48,15.31,15.31,0,0,1-.61-1.64c-.22-.64-.29-1.31-.55-1.94h0A4,4,0,0,1,167.22,154Z" class="b2152b7b-bc29-40fc-b464-5c3b9b7c9417"></path><path d="M160.23,142.59a4.38,4.38,0,0,1-1.19-1.08s-.1,0-.12,0a7.68,7.68,0,0,1-1.14,1.14,2,2,0,0,1-3.07,0c-.4-.43-.82-.85-1.23-1.27a8.54,8.54,0,0,1-.82.5,3.44,3.44,0,0,0-.76.5c-.05.28.13.47.3.66a4.94,4.94,0,0,0,2.59,1.88,3.41,3.41,0,0,0,2.57,0,3.83,3.83,0,0,1,.43-.17,6.11,6.11,0,0,0,2.5-1.69C160.53,142.81,160.33,142.74,160.23,142.59Z" class="b2152b7b-bc29-40fc-b464-5c3b9b7c9417"></path><path d="M160,169.53l0,0v0Z" class="b8e74200-a507-40b4-9f8e-c3b85a248ed9"></path><path d="M146.77,157.21a17.53,17.53,0,0,0,1.11,1.46H148c-.08-.12-.2-.21-.28-.33-.49-.7-1-1.4-1.55-2.06a4,4,0,0,0-2.22-1.46c-.13,0-.27-.08-.39,0h0a4,4,0,0,1,1.21.36A6.56,6.56,0,0,1,146.77,157.21Z" class="b2152b7b-bc29-40fc-b464-5c3b9b7c9417"></path><path d="M170.47,159a5,5,0,0,0-2.1-.1,6.69,6.69,0,0,0-3.63,1.5v.08a2.37,2.37,0,0,0,.33-.22,6.66,6.66,0,0,1,3.56-1.3,12.43,12.43,0,0,1,1.83,0Z" class="b2152b7b-bc29-40fc-b464-5c3b9b7c9417"></path><path d="M165.42,154.16a15.44,15.44,0,0,1,1.8-.17,4,4,0,0,0,1.72-.52h0a1.25,1.25,0,0,0-.19,0,6.57,6.57,0,0,1-2,.43,3.7,3.7,0,0,0-1.44.17l0,0A.14.14,0,0,0,165.42,154.16Z" class="b2152b7b-bc29-40fc-b464-5c3b9b7c9417"></path><path d="M147.11,156.78c.2-.72.59-1.35.8-2.05,0-.14.1-.28,0-.42l0,0c-.1,0-.19-.08-.3,0a4,4,0,0,1-1.65.11,3.14,3.14,0,0,1-1.3-.37.7.7,0,0,0-.84-.06,2.43,2.43,0,0,0-.29.91c.12-.09.26,0,.39,0a4,4,0,0,1,2.22,1.46c.55.66,1.06,1.36,1.55,2.06.08.12.2.21.28.33s.17-.07.17-.18a4.7,4.7,0,0,0-.11-1.71Z" class="b2152b7b-bc29-40fc-b464-5c3b9b7c9417"></path><path d="M159.9,170c0-.15.15-.33,0-.51h0v0a10.38,10.38,0,0,0-1.82-.4,1.38,1.38,0,0,0-1.25.39,4.36,4.36,0,0,0-.71,1,.91.91,0,0,0,.14,1.33,5.73,5.73,0,0,0,2.25,1,2,2,0,0,0,1.26-.09.34.34,0,0,0,.18-.31,5.79,5.79,0,0,0,0-.83A4.85,4.85,0,0,1,159.9,170Z" class="a3c4dd92-268f-4878-bf31-1e0e3317ac8c"></path><path d="M153.61,170.79a.77.77,0,0,0-.35-.9s0,0-.06-.07a1.14,1.14,0,0,0-1.24-.58h-.37s0,0-.05.05l-.11-.05-.18,0c-.23,0-.4.14-.41.39a1.87,1.87,0,0,0,.17,1,2,2,0,0,1,.4,1.37.44.44,0,0,0,.05.15.42.42,0,0,0,.46.17,9.15,9.15,0,0,1,1.28-.17.89.89,0,0,0,.58-.18.84.84,0,0,0-.05-.52A.82.82,0,0,1,153.61,170.79Z" class="a3c4dd92-268f-4878-bf31-1e0e3317ac8c"></path><path d="M151.54,169.28s0,0,.05-.05h-.16Z" class="b8e74200-a507-40b4-9f8e-c3b85a248ed9"></path><path d="M165.19,169.44a2.27,2.27,0,0,0,1-.19l-1.19.13Z" class="f0a15ae0-e702-4e23-9bc8-4496399a535f"></path><path d="M165.19,169.44l-.2-.06a.19.19,0,0,0,0,.08Z" class="f0a15ae0-e702-4e23-9bc8-4496399a535f"></path><path d="M172.24,161.67a3.46,3.46,0,0,0-1.77-2.71,12.43,12.43,0,0,0-1.83,0,6.66,6.66,0,0,0-3.56,1.3,2.37,2.37,0,0,1-.33.22c-.15.7-.74.64-1.25.73a.92.92,0,0,0-.33.06c0,.11-.15.15-.23.2a6.86,6.86,0,0,0-1.44,1.19c-1,.92-2,1.84-3,2.73a15.83,15.83,0,0,1-1.64,1.18,1.14,1.14,0,0,1-1.4-.2c-.68-.64-1.34-1.3-2-1.9a36.48,36.48,0,0,1-2.92-2.63c-.32-.34-.63-.68-1-1.08h.71a.71.71,0,0,0-.43,0,2.26,2.26,0,0,1-1.5-.49c-.18-.1-.18-.28-.19-.46a1.54,1.54,0,0,0-.2-1.05,17.53,17.53,0,0,1-1.11-1.46,6.56,6.56,0,0,0-2-2,4,4,0,0,0-1.21-.36,3.43,3.43,0,0,0-3,2.26,3.23,3.23,0,0,0-.08,2.27,14.64,14.64,0,0,0,4,6.13,2.85,2.85,0,0,0,.85.88c.43.32.68.83,1.09,1.15s1,.84,1.44,1.24a1.18,1.18,0,0,0,.37.05c.73.05,1.45-.19,2.18-.07v0l0,0a4.32,4.32,0,0,1,1.13.48H152a1.14,1.14,0,0,1,1.24.58s0,.05.06.07a.77.77,0,0,1,.35.9.82.82,0,0,0,.12.69.84.84,0,0,1,.05.52,2.62,2.62,0,0,0,1.51.42c.6,0,.77-.07,1-.62a.91.91,0,0,1-.14-1.33,4.36,4.36,0,0,1,.71-1,1.38,1.38,0,0,1,1.25-.39,10.38,10.38,0,0,1,1.82.4,2.18,2.18,0,0,1,.88,0,16.44,16.44,0,0,0,3.29-.06,3.05,3.05,0,0,1,.9-.08l1.19-.13a9.27,9.27,0,0,0,1.61-.94,41.47,41.47,0,0,0,3.29-2.93,3.82,3.82,0,0,0,.82-1.2A5.4,5.4,0,0,0,172.24,161.67Z" class="a3c4dd92-268f-4878-bf31-1e0e3317ac8c"></path><path d="M150.44,168.74h0l0,0Z" class="bf2ccddc-b0c4-441d-aa4d-598f95b253f0"></path><path d="M149.68,160.59a2.38,2.38,0,0,1-1.05-.28.74.74,0,0,1-.46-.8,1.18,1.18,0,0,0-.18-.8l-.11,0a1.54,1.54,0,0,1,.2,1.05c0,.18,0,.36.19.46a2.26,2.26,0,0,0,1.5.49.71.71,0,0,1,.43,0s0,0,0,0C150.06,160.53,149.86,160.58,149.68,160.59Z" class="e35bb54a-16bd-4dd3-9bab-0ac463c209fe"></path><path d="M163.62,161.07a.73.73,0,0,0-.45.1l-.09.06h.09a.92.92,0,0,1,.33-.06c.51-.09,1.1,0,1.25-.73h-.05A1.12,1.12,0,0,1,163.62,161.07Z" class="e35bb54a-16bd-4dd3-9bab-0ac463c209fe"></path><path d="M168.44,149.89a13.07,13.07,0,0,0-1.53-4.17,7,7,0,0,0-2.11-2.09,8.89,8.89,0,0,0-4.57-1c.1.15.3.22.06.48a6.11,6.11,0,0,1-2.5,1.69,3.83,3.83,0,0,0-.43.17,3.41,3.41,0,0,1-2.57,0,4.94,4.94,0,0,1-2.59-1.88c-.17-.19-.35-.38-.3-.66h0a9.84,9.84,0,0,0-1.57.66c-1.16.58-2.25,1.3-3.43,1.83a2.27,2.27,0,0,0-.49.34,5,5,0,0,0-1.51,2.67,13,13,0,0,0-.52,2.78,20.28,20.28,0,0,1-.51,2.18,1.78,1.78,0,0,0-.06,1.07.7.7,0,0,1,.84.06,3.14,3.14,0,0,0,1.3.37,3.68,3.68,0,0,0,1.24,0v6.54h18.56V154c.33,0,.67,0,1,0a6.57,6.57,0,0,0,2-.43,1.25,1.25,0,0,1,.19,0A25.69,25.69,0,0,0,168.44,149.89Z" class="a261c311-75b4-4829-9999-55a8f2319ed3"></path><path d="M164.77,158l0,.08a19.59,19.59,0,0,0-.11,2.17c0,.06,0,.12.07.14l0-.05v0a10.25,10.25,0,0,1,0-1.11,6,6,0,0,1,.12-1.27v-.06Z" class="e35bb54a-16bd-4dd3-9bab-0ac463c209fe"></path><path d="M164.74,160.36v0l0,.05h.05Z" class="e35bb54a-16bd-4dd3-9bab-0ac463c209fe"></path><path d="M165.28,154.14l0,0h0A.05.05,0,0,0,165.28,154.14Z" class="e35bb54a-16bd-4dd3-9bab-0ac463c209fe"></path><path d="M148,154.74c0-.15.11-.32,0-.43h0c.09.14,0,.28,0,.42a.74.74,0,0,1,0,.14Z" class="e35bb54a-16bd-4dd3-9bab-0ac463c209fe"></path><path d="M148,158.71c.13,0,.21-.1.22-.23a3.58,3.58,0,0,0-.11-1.69l-.09,0a.08.08,0,0,0,0,0h0a4.7,4.7,0,0,1,.11,1.71c0,.11-.08.16-.17.18h0Z" class="e35bb54a-16bd-4dd3-9bab-0ac463c209fe"></path><path d="M148,158.68h-.09l.11,0Z" class="e35bb54a-16bd-4dd3-9bab-0ac463c209fe"></path><path d="M147.9,154.29h0l0,0h0Z" class="e35bb54a-16bd-4dd3-9bab-0ac463c209fe"></path><path d="M163,161.31l.11-.08a41.2,41.2,0,0,1-4.16-.07c-1.21-.1-2.42-.19-3.64-.19-.9,0-1.79,0-2.69-.07l-2.36-.18h-.74c.39.4.7.74,1,1.08a36.48,36.48,0,0,0,2.92,2.63c.7.6,1.36,1.26,2,1.9a1.14,1.14,0,0,0,1.4.2,15.83,15.83,0,0,0,1.64-1.18c1-.89,2-1.81,3-2.73a6.86,6.86,0,0,1,1.44-1.19c.08-.05.19-.09.23-.2A.7.7,0,0,1,163,161.31Z" class="a3c4dd92-268f-4878-bf31-1e0e3317ac8c"></path><path d="M163,161.31a.7.7,0,0,0,.2-.08h-.09Z" class="b870a518-00f4-4e93-90d5-52e1edfbdea3"></path><path d="M164.88,157.92V158a.3.3,0,0,1,0-.08Z" class="b7ce22a3-e52b-4740-a4e1-fe1b87ff4f99"></path><path d="M165.12,156.49c0-.06,0-.13,0-.2l0,.13Z" class="b7ce22a3-e52b-4740-a4e1-fe1b87ff4f99"></path><path d="M148,156.74l0,0,.05.06h0A.08.08,0,0,1,148,156.74Z" class="b976a635-4814-417b-a533-4ce389a56a77"></path><path d="M151,170.66a1.87,1.87,0,0,1-.17-1c0-.25.18-.35.41-.39l.18,0c-.33-.13-.64-.32-1-.44a.08.08,0,0,1,0,0c-.73-.12-1.45.12-2.18.07a1.18,1.18,0,0,1-.37-.05.3.3,0,0,1-.29,0h-.52l-.11,0-.1,0-.11,0-.1,0-.12,0-.1,0-.13.05-.19.06-.07,0-.22.07a1.12,1.12,0,0,0-.24.13,3.34,3.34,0,0,0-1.18,3.15.91.91,0,0,0,.52.7l.23.11h0l.2.08h0a1.49,1.49,0,0,0,1.3-.18,3.5,3.5,0,0,1,.47-.25,3.36,3.36,0,0,1,1.4-.34c.68,0,1.33.18,2,.08a1,1,0,0,0,.89-.52.44.44,0,0,1-.05-.15A2,2,0,0,0,151,170.66Z" class="f824bb19-9287-4889-a088-63a334be6082"></path><path d="M167.11,169.62a6.46,6.46,0,0,0-.86-.24c-.09,0-.11,0-.07-.13a2.27,2.27,0,0,1-1,.19l-.18,0h0a18.91,18.91,0,0,1-2.82.2c-.72,0-1.45,0-2.17-.12h0c.1.18,0,.36,0,.51a4.85,4.85,0,0,0,0,1.57,5.79,5.79,0,0,1,0,.83.34.34,0,0,1-.18.31,1.16,1.16,0,0,0,1,.92,14.35,14.35,0,0,0,1.85.21,2.19,2.19,0,0,1,1.39.48,1.48,1.48,0,0,0,1.15.39l.59-.06a3.53,3.53,0,0,0,1.72-.76,1.78,1.78,0,0,0,.56-.65,4.58,4.58,0,0,0,.3-1.83A2,2,0,0,0,167.11,169.62Z" class="f824bb19-9287-4889-a088-63a334be6082"></path><path d="M152.59,163.91c.9.07,1.79.06,2.69.06,1.22,0,2.43.1,3.64.2,1.38.11,2.77.08,4.16.07l.09-.07a.9.9,0,0,1,.45-.1,1.1,1.1,0,0,0,1.08-.63.15.15,0,0,1-.07-.15,19.53,19.53,0,0,1,.11-2.16l0-.09.11-.11.21-1.51a.75.75,0,0,1-.07-.18,5.45,5.45,0,0,1,.12-2c0-.07,0-.14.12-.16v0a8.47,8.47,0,0,1,.13-1.51.9.9,0,0,0-.84-1.17c-.63-.09-1.27,0-1.9-.08-1.19-.11-2.39-.14-3.59-.17-1,0-1.93-.12-2.9-.15s-1.85-.14-2.77-.13c-1.47,0-2.94-.08-4.41.07-.78.08-1.05.46-.95,1.24a16.14,16.14,0,0,1,0,1.84.35.35,0,0,1-.1.29h0c.16.12.07.28,0,.44l0,.13c0,.23,0,.47,0,.71a7.38,7.38,0,0,0,0,1.15l.09,0a3.58,3.58,0,0,1,.11,1.69c0,.13-.09.24-.22.23a1.19,1.19,0,0,1,.18.8.73.73,0,0,0,.46.8,2.14,2.14,0,0,0,1.05.28c.18,0,.38-.05.54.09,0,0,0,0,0,0l0,0Z" class="e35bb54a-16bd-4dd3-9bab-0ac463c209fe"></path></g></svg>