<?xml version="1.0" standalone="no"?><!DOCTYPE svg PUBLIC "-//W3C//DTD SVG 1.1//EN" "http://www.w3.org/Graphics/SVG/1.1/DTD/svg11.dtd"><svg t="1679029676781" class="icon" viewBox="0 0 1024 1024" version="1.1" xmlns="http://www.w3.org/2000/svg" p-id="51215" xmlns:xlink="http://www.w3.org/1999/xlink" width="200" height="200"><path d="M512 0a512 512 0 1 0 512 512A512 512 0 0 0 512 0z m213.333333 668.373333a42.666667 42.666667 0 0 1-42.666666 42.666667H341.333333a42.666667 42.666667 0 0 1-42.666666-42.666667v-187.306666h426.666666z m0-232.106666H298.666667v-80.64a42.666667 42.666667 0 0 1 42.666666-42.666667h89.813334a21.333333 21.333333 0 0 1 16.426666 8.32l17.92 24.32a21.333333 21.333333 0 0 0 16.426667 8.32H682.666667a42.666667 42.666667 0 0 1 42.666666 42.666667z" fill="#F3C630" p-id="51216"></path></svg>