<?xml version="1.0" standalone="no"?><!DOCTYPE svg PUBLIC "-//W3C//DTD SVG 1.1//EN" "http://www.w3.org/Graphics/SVG/1.1/DTD/svg11.dtd"><svg t="1678955799185" class="icon" viewBox="0 0 1024 1024" version="1.1" xmlns="http://www.w3.org/2000/svg" p-id="4023" xmlns:xlink="http://www.w3.org/1999/xlink" width="200" height="200"><path d="M732.48 445.05a16.89 16.89 0 0 1-12-5l-88.92-88.92a17 17 0 0 1 0-24l46.68-46.68a320.59 320.59 0 0 0-169.87-48.21 326.11 326.11 0 0 0-65.74 6.68c0.06 22.22 0.23 48.48 0.63 75.16 0.26 17.45 0.59 33 1 46.81 11.89-5.75 40.07-16.17 63.2 0.11 20 14.08 18.29 39.9 18.29 39.9l5.07 147.1c17.83 19.85 32.77 46 36.32 83.2 8.49 89.23-32.44 119.47-37.14 122.62a15.23 15.23 0 0 0-6.68 13.73l7.92 109.41a323 323 0 0 0 257.85-481.48l-44.59 44.59a16.89 16.89 0 0 1-12.02 4.98zM351.56 751.23c-0.13-1.55-0.54-4.41-1.72-12.43-18.37-125.17-27.72-240-27.77-341.41 0-35.11 0.16-71.71 1.3-107a325.92 325.92 0 0 0-43.24 36.35 322.76 322.76 0 0 0 0 456.44 326.07 326.07 0 0 0 50.09 41L350.94 757a15.19 15.19 0 0 0 0.62-5.77z" fill="#C5EAFF" p-id="4024"></path><path d="M530 753.77c4.7-3.15 45.63-33.39 37.14-122.62-3.55-37.15-18.49-63.35-36.32-83.15l-5.13-147.07s1.72-25.82-18.29-39.9c-23.13-16.28-51.31-5.86-63.2-0.11-0.37-13.83-0.7-29.36-1-46.81-0.4-26.68-0.57-52.94-0.63-75.16-0.09-35.24 0.09-60.31 0.1-60.72v-0.59c0-0.26 1.29-25.57-4.79-51.29-7.31-30.88-21.4-47.43-41.89-49.2-0.77-0.07-1.56-0.1-2.35-0.1-16.41 0-38.34 13.64-50.68 51.91-12.49 38.75-17.6 98-19.64 161.49-1.14 35.28-1.32 71.88-1.3 107 0.05 101.38 9.4 216.24 27.77 341.41 1.18 8 1.59 10.88 1.72 12.43a15.19 15.19 0 0 1-0.62 5.73l-20.72 67.27L292.42 947h243.9l-5.08-70.09-7.92-109.41a15.23 15.23 0 0 1 6.68-13.73z" fill="#FFD4C7" p-id="4025"></path><path d="M833.42 327.11l-88.92-88.92a17 17 0 0 0-24 0l-42.24 42.24-46.68 46.68a17 17 0 0 0 0 24l88.92 88.92a17 17 0 0 0 24 0l44.59-44.59 44.33-44.33a17 17 0 0 0 0-24z" fill="#F9DB91" p-id="4026"></path><path d="M842.62 360.34a30 30 0 0 0 0-42.42L753.7 229a30 30 0 0 0-42.43 0l-35.12 35.12a336.18 336.18 0 0 0-220.57-40.74c0-27.1 0.13-45.1 0.13-45.1s5.84-108.56-58.55-114.13c-1.14-0.1-2.29-0.15-3.47-0.15-21.18 0-48.66 16.27-63.05 60.92-12.43 38.55-17.8 95.16-20.05 158.72C227 344.7 172.6 443.48 172.6 555c0 113.44 56.26 213.73 142.4 274.51l-35.76 116.1A11.12 11.12 0 0 0 289.87 960h248.47a11.11 11.11 0 0 0 11.09-11.92l-4.3-59.4C713.25 870.36 844.1 728 844.1 555a334.13 334.13 0 0 0-39-157.11z m-113-113a4 4 0 0 1 5.65 0l88.92 88.92a4 4 0 0 1 0 5.66l-88.92 88.92a4 4 0 0 1-5.65 0L640.74 342a4 4 0 0 1 0-5.66zM289.32 774a309.46 309.46 0 0 1 0-438q9.81-9.81 20.36-18.63c-0.51 26.13-0.63 53.06-0.62 80.08 0.1 177 28.77 345.59 29.55 354.91a2.13 2.13 0 0 1-0.1 0.83l-15.43 50.11a313.23 313.23 0 0 1-33.76-29.3z m233.43-31a28.27 28.27 0 0 0-12.4 25.46l12 165.56H310l53.34-173.21a28.16 28.16 0 0 0 1.16-10.63c-0.17-2-0.54-4.55-1.82-13.25-3-20.33-10-67.93-16.1-128.68-7.62-75.42-11.5-146.36-11.54-210.85-0.05-97.29 1.47-206 20.32-264.48 5.06-15.7 12.36-27.94 21.11-35.4 7.65-6.52 14.06-7.5 17.2-7.5h1.23c5.25 0.46 21.24 1.84 30.15 38.38 5.82 23.89 4.68 48.26 4.67 48.46v1.19c0 0.67-0.5 67 0.53 136.17 2.16 144.3 8.7 160 11.84 167.53 6.64 15.93 21.5 27.07 38.71 40 30.16 22.59 67.7 50.7 73.4 110.64 3.31 34.73-1 64.76-12.4 86.84-8.45 16.32-17.99 23.04-19.05 23.77z m-6-226.28c-23.17-19.12-45-31.44-50.65-44.92-4.54-10.91-7.15-53.23-8.63-102.47 11.29-4.15 28.47-7.55 42.47 2.3 13.6 9.57 12.81 28.32 12.8 28.41v0.56z m277-82.29a309.61 309.61 0 0 1-250.5 428.33l-7-96.2a2.23 2.23 0 0 1 1-2c7.5-5 51.92-39.13 42.83-134.64-3.68-38.56-18.54-66.15-36.43-87.13l-4.95-141.87c0.17-5.33-0.09-33.88-23.82-50.57-19.73-13.89-41.69-12.48-58.12-8-0.69-31.89-1-64.77-1.11-92.65a311.79 311.79 0 0 1 52.7-4.47 307.89 307.89 0 0 1 120.56 24.33 311.07 311.07 0 0 1 28.16 13.65l-34.72 34.72a30 30 0 0 0 0 42.42l88.92 88.92a30 30 0 0 0 42.43 0l32.11-32.11q4.19 8.48 7.96 17.25z" fill="#512C56" p-id="4027"></path></svg>