<?xml version="1.0" standalone="no"?><!DOCTYPE svg PUBLIC "-//W3C//DTD SVG 1.1//EN" "http://www.w3.org/Graphics/SVG/1.1/DTD/svg11.dtd"><svg t="1679298963003" class="icon" viewBox="0 0 1024 1024" version="1.1" xmlns="http://www.w3.org/2000/svg" p-id="2153" xmlns:xlink="http://www.w3.org/1999/xlink" width="200" height="200"><path d="M656.384 559.232L369.877333 272.725333v-22.058666c0-76.586667 64.981333-138.666667 145.109334-138.666667 80.170667 0 145.109333 62.08 145.109333 138.666667v277.248c0 10.794667-1.28 21.248-3.712 31.317333z m-84.693333 96.341333a150.528 150.528 0 0 1-56.704 10.965334c-80.128 0-145.066667-62.08-145.066667-138.624v-74.154667l201.770667 201.813333z m153.898666-27.136l-29.610666-29.568a165.973333 165.973333 0 0 0 12.373333-62.848V423.936a21.845333 21.845333 0 0 1 43.648 0v99.285333c0 37.930667-9.557333 73.685333-26.453333 105.216z m-89.173333 91.904a245.290667 245.290667 0 0 1-97.066667 31.872v135.637334a24.149333 24.149333 0 0 1-48.341333 0v-135.04c-122.709333-10.24-219.008-109.013333-219.008-229.546667v-96.426667a24.704 24.704 0 0 1 49.408 0v109.184c0 98.56 86.613333 178.474667 193.450667 178.474667 33.92 0 65.834667-8.064 93.568-22.186667l28.032 28.032zM145.28 183.893333l45.226667-45.226666 678.826666 678.826666-45.226666 45.226667z" fill="#409EFF" p-id="2154"></path></svg>