<?xml version="1.0" standalone="no"?><!DOCTYPE svg PUBLIC "-//W3C//DTD SVG 1.1//EN" "http://www.w3.org/Graphics/SVG/1.1/DTD/svg11.dtd"><svg t="1679166381357" class="icon" viewBox="0 0 1024 1024" version="1.1" xmlns="http://www.w3.org/2000/svg" p-id="5038" data-spm-anchor-id="a313x.7781069.0.i1" xmlns:xlink="http://www.w3.org/1999/xlink" width="200" height="200"><path d="M486.4 972.8v-128.9728A332.8 332.8 0 0 1 179.2 512a25.6 25.6 0 0 1 51.2 0 281.6 281.6 0 0 0 563.2 0 25.6 25.6 0 1 1 51.2 0 332.8 332.8 0 0 1-307.2 331.8272V972.8h153.6a25.6 25.6 0 1 1 0 51.2h-358.4a25.6 25.6 0 1 1 0-51.2h153.6zM512 51.2a153.6 153.6 0 0 0-153.6 153.6v307.2a153.6 153.6 0 0 0 307.2 0V204.8a153.6 153.6 0 0 0-153.6-153.6z m0-51.2a204.8 204.8 0 0 1 204.8 204.8v307.2a204.8 204.8 0 1 1-409.6 0V204.8a204.8 204.8 0 0 1 204.8-204.8z" fill="#409EFF" p-id="5039"></path></svg>