<?xml version="1.0" standalone="no"?><!DOCTYPE svg PUBLIC "-//W3C//DTD SVG 1.1//EN" "http://www.w3.org/Graphics/SVG/1.1/DTD/svg11.dtd"><svg t="1681104770483" class="icon" viewBox="0 0 1024 1024" version="1.1" xmlns="http://www.w3.org/2000/svg" p-id="1988" xmlns:xlink="http://www.w3.org/1999/xlink" width="200" height="200"><path d="M803.689688 551.973578c0 220.592147-178.82422 399.416367-399.416367 399.416367-220.582752 0-399.406972-178.82422-399.406972-399.416367 0-220.582752 178.82422-399.416367 399.406972-399.416367s399.416367 178.82422 399.416367 399.416367" fill="#F5F0FF" p-id="1989"></path><path d="M1007.653578 704.530789h-751.559633l79.881394-163.793028a42.92345 42.92345 0 0 1 38.564404-24.09688h514.686826c16.402789 0 31.36822 9.356917 38.564403 24.09688l79.872 163.793028z" fill="#0091F1" p-id="1990"></path><path d="M831.488 832.483817L517.373651 771.757798a34.881761 34.881761 0 0 1-27.629211-40.866055l72.544294-375.319486a34.872367 34.872367 0 0 1 40.866055-27.629211L917.278532 388.650275a34.891156 34.891156 0 0 1 27.638606 40.866055l-72.544294 375.328881a34.891156 34.891156 0 0 1-40.87545 27.619817" fill="#6EC11D" p-id="1991"></path><path d="M812.811743 792.040514l72.05578-372.811156c3.804771-19.606312-7.91956-38.367119-26.173064-41.89945l-256.75156-49.61233c-18.234716-3.53233-36.103046 9.507229-39.898422 29.113541l-72.05578 372.811156c-3.785982 19.606312 7.928954 38.367119 26.182459 41.89945l256.742165 49.621725c18.253505 3.522936 36.121835-9.516624 39.907817-29.122936" fill="#7BD721" p-id="1992"></path><path d="M436.355523 832.483817l314.114349-60.716624a34.881761 34.881761 0 0 0 27.619816-40.866055L705.564183 355.581651a34.872367 34.872367 0 0 0-40.875449-27.629211L350.574385 388.650275a34.891156 34.891156 0 0 0-27.638605 40.866055l72.544293 375.328881a34.891156 34.891156 0 0 0 40.866055 27.619817" fill="#F4731C" p-id="1993"></path><path d="M455.022385 792.040514l-72.055779-372.811156c-3.795376-19.606312 7.928954-38.367119 26.182458-41.89945l256.742165-49.61233c18.24411-3.53233 36.11244 9.507229 39.907817 29.113541l72.05578 372.811156c3.785982 19.606312-7.928954 38.367119-26.182459 41.89945l-256.75156 49.621725c-18.24411 3.522936-36.11244-9.516624-39.898422-29.122936" fill="#FF781D" p-id="1994"></path><path d="M791.843229 806.235596H471.923083a34.891156 34.891156 0 0 1-34.891156-34.891156v-382.262018a34.881761 34.881761 0 0 1 34.891156-34.881761h319.920146a34.881761 34.881761 0 0 1 34.891156 34.881761v382.262018a34.891156 34.891156 0 0 1-34.891156 34.891156" fill="#FFB600" p-id="1995"></path><path d="M765.839266 770.066789V390.350679c0-19.963303-15.068771-36.159413-33.660477-36.159413H470.692404c-18.591706 0-33.660477 16.19611-33.660477 36.159413V770.066789c0 19.972697 15.068771 36.168807 33.660477 36.168807h261.486385c18.591706 0 33.660477-16.19611 33.660477-36.168807" fill="#FFD500" p-id="1996"></path><path d="M741.479339 743.959486v24.651156a28.709578 28.709578 0 0 1-28.709578 28.700184H550.987156a28.700183 28.700183 0 0 1-28.700184-28.700184v-24.651156a39.447486 39.447486 0 0 0-39.438091-39.438092H256.093945v216.017028a34.505982 34.505982 0 0 0 34.505982 34.505982h682.557064a34.496587 34.496587 0 0 0 34.496587-34.505982V704.521394H780.917431a39.438092 39.438092 0 0 0-39.438092 39.438092" fill="#00B1FF" p-id="1997"></path><path d="M717.326092 496.546055a32.598899 32.598899 0 0 1-32.598899 32.598899H518.153394a32.598899 32.598899 0 1 1 0-65.197798h166.564404a32.598899 32.598899 0 0 1 32.598899 32.598899M717.326092 594.29578a32.598899 32.598899 0 0 1-32.598899 32.598899H518.153394a32.598899 32.598899 0 1 1 0-65.197798h166.564404a32.598899 32.598899 0 0 1 32.598899 32.598899" fill="#FFFFFF" p-id="1998"></path><path d="M68.344954 373.403009a16.975853 16.975853 0 1 1 0-33.951706 16.975853 16.975853 0 0 1 0 33.951706m0-49.377468a32.401615 32.401615 0 1 0 0 64.793835 32.401615 32.401615 0 0 0 0-64.793835" fill="#00B1FF" p-id="1999"></path><path d="M225.016954 352.594202a15.256661 15.256661 0 1 1-30.503926 0 15.256661 15.256661 0 0 1 30.503926 0" fill="#5C3290" p-id="2000"></path><path d="M209.760294 462.613138a11.310972 11.310972 0 0 1-11.310973-11.310973v-25.722128a11.310972 11.310972 0 1 1 22.621945 0v25.722128c0 6.247339-5.063633 11.310972-11.310972 11.310973M209.760294 527.416367a11.310972 11.310972 0 0 1-11.310973-11.310973V490.392661a11.310972 11.310972 0 1 1 22.621945 0v25.722128c0 6.247339-5.063633 11.310972-11.310972 11.310972M201.530716 470.842716c0 6.247339-5.063633 11.310972-11.310973 11.310972H164.497615a11.310972 11.310972 0 1 1 0-22.621945h25.722128c6.247339 0 11.310972 5.063633 11.310973 11.310973M266.333945 470.842716c0 6.247339-5.063633 11.310972-11.310973 11.310972h-25.722128a11.310972 11.310972 0 1 1 0-22.621945h25.722128c6.247339 0 11.310972 5.063633 11.310973 11.310973" fill="#FFD500" p-id="2001"></path><path d="M364.036697 179.021505a11.310972 11.310972 0 0 1-11.301578-11.310973v-25.722128a11.310972 11.310972 0 1 1 22.621945 0v25.722128c0 6.247339-5.073028 11.310972-11.310972 11.310973M364.036697 243.824734a11.310972 11.310972 0 0 1-11.301578-11.310973v-25.722128a11.310972 11.310972 0 1 1 22.621945 0v25.722128c0 6.247339-5.073028 11.310972-11.310972 11.310973M355.816514 187.251083c0 6.247339-5.073028 11.310972-11.310973 11.310972h-25.722128a11.310972 11.310972 0 1 1 0-22.621945h25.722128c6.247339 0 11.310972 5.063633 11.310973 11.310973M420.619743 187.251083c0 6.247339-5.073028 11.310972-11.310972 11.310972H383.577248a11.310972 11.310972 0 1 1 0-22.621945h25.722128c6.247339 0 11.310972 5.063633 11.310973 11.310973" fill="#7BD721" p-id="2002"></path></svg>