<?xml version="1.0" standalone="no"?><!DOCTYPE svg PUBLIC "-//W3C//DTD SVG 1.1//EN" "http://www.w3.org/Graphics/SVG/1.1/DTD/svg11.dtd"><svg t="1681104729315" class="icon" viewBox="0 0 1024 1024" version="1.1" xmlns="http://www.w3.org/2000/svg" p-id="1313" xmlns:xlink="http://www.w3.org/1999/xlink" width="200" height="200"><path d="M884.585688 481.186055c0 220.582752-178.814826 399.406972-399.406972 399.406973C264.595963 880.593028 85.771743 701.768807 85.771743 481.186055c0-220.582752 178.82422-399.416367 399.406973-399.416367S884.585688 260.584514 884.585688 481.186055" fill="#F5F0FF" p-id="1314"></path><path d="M822.54444 746.618128H425.683376c-69.735339 0-126.262018-56.536073-126.262018-126.271412V349.757064c0-69.735339 56.526679-126.271413 126.262018-126.271413h396.861064c69.735339 0 126.271413 56.536073 126.271413 126.262019v270.599046c0 69.735339-56.536073 126.262018-126.262018 126.262018" fill="#0091F1" p-id="1315"></path><path d="M876.666128 620.346716V349.757064c0-69.744734-56.536073-126.280807-126.271412-126.280807H425.692771c-69.744734 0-126.271413 56.536073-126.271413 126.280807v270.580257c0 69.735339 56.526679 126.262018 126.262018 126.262018h324.71134c69.735339 0 126.262018-56.526679 126.262018-126.262018" fill="#00B1FF" p-id="1316"></path><path d="M903.318312 918.678312H340.437725a41.025761 41.025761 0 0 1-41.016367-41.025762v-47.977688a41.025761 41.025761 0 0 1 41.016367-41.025761h562.880587a41.025761 41.025761 0 0 1 41.025761 41.025761v47.977688a41.025761 41.025761 0 0 1-41.025761 41.025762" fill="#6EC11D" p-id="1317"></path><path d="M299.411963 819.350312v68.626789c0 16.957064 24.538422 30.701211 54.816881 30.701211h453.058936c30.278459 0 54.826275-13.744147 54.826275-30.701211v-68.626789c0-16.957064-24.547817-30.701211-54.826275-30.701211H354.228844c-30.278459 0-54.816881 13.744147-54.816881 30.701211" fill="#7BD721" p-id="1318"></path><path d="M683.806532 453.932624l-128.140917-74.000441c-18.469578-10.643963-41.542459 2.677431-41.542459 23.984147v147.982092c0 21.297321 23.072881 34.618716 41.533064 23.965358l128.150312-73.991046c18.460183-10.643963 18.460183-37.296147 0-47.94011" fill="#FFFFFF" p-id="1319"></path><path d="M199.106936 159.321248a11.310972 11.310972 0 0 1-11.310973-11.310973v-25.731523a11.310972 11.310972 0 1 1 22.621945 0v25.731523c0 6.237945-5.073028 11.310972-11.310972 11.310973M199.106936 224.124477a11.310972 11.310972 0 0 1-11.310973-11.310972v-25.722129a11.310972 11.310972 0 1 1 22.621945 0v25.722129c0 6.247339-5.073028 11.310972-11.310972 11.310972M190.877358 167.541431c0 6.256734-5.073028 11.310972-11.310973 11.310973h-25.722128a11.310972 11.310972 0 1 1 0-22.612551h25.722128c6.247339 0 11.310972 5.054239 11.310973 11.301578M255.680587 167.541431c0 6.256734-5.063633 11.310972-11.310972 11.310973h-25.722129a11.310972 11.310972 0 1 1 0-22.612551h25.722129c6.247339 0 11.310972 5.054239 11.310972 11.301578" fill="#FFD500" p-id="1320"></path><path d="M326.656 137.826642a15.256661 15.256661 0 1 1-29.104147-9.131449 15.256661 15.256661 0 0 1 29.104147 9.131449M212.315596 400.957064a15.266055 15.266055 0 1 1-26.43611 15.266055A15.266055 15.266055 0 0 1 212.315596 400.957064" fill="#5C3290" p-id="1321"></path><path d="M123.06789 303.160367a16.975853 16.975853 0 1 1 0-33.951706 16.975853 16.975853 0 0 1 0 33.951706m0-49.377468a32.401615 32.401615 0 1 0-0.009395 64.803229 32.401615 32.401615 0 0 0 0-64.803229" fill="#00B1FF" p-id="1322"></path></svg>