<?xml version="1.0" standalone="no"?><!DOCTYPE svg PUBLIC "-//W3C//DTD SVG 1.1//EN" "http://www.w3.org/Graphics/SVG/1.1/DTD/svg11.dtd"><svg t="1679646854786" class="icon" viewBox="0 0 1024 1024" version="1.1" xmlns="http://www.w3.org/2000/svg" p-id="1271" xmlns:xlink="http://www.w3.org/1999/xlink" width="200" height="200"><path d="M513.536 977.408h-465.92v-465.92c0-257.024 208.896-465.92 465.92-465.92s465.92 208.896 465.92 465.92-208.896 465.92-465.92 465.92z m-404.48-61.44h404.48c222.72 0 404.48-181.76 404.48-404.48s-181.248-404.48-404.48-404.48-404.48 181.248-404.48 404.48v404.48z" fill="#040000" p-id="1272"></path><path d="M721.92 482.816H308.736c-16.896 0-30.72-13.824-30.72-30.72s13.824-30.72 30.72-30.72H721.92c16.896 0 30.72 13.824 30.72 30.72s-13.824 30.72-30.72 30.72z m-157.184 203.776H310.272c-16.896 0-30.72-13.824-30.72-30.72s13.824-30.72 30.72-30.72h253.952c16.896 0 30.72 13.824 30.72 30.72s-13.312 30.72-30.208 30.72z" fill="#D63123" p-id="1273"></path></svg>