<?xml version="1.0" standalone="no"?><!DOCTYPE svg PUBLIC "-//W3C//DTD SVG 1.1//EN" "http://www.w3.org/Graphics/SVG/1.1/DTD/svg11.dtd"><svg t="1679889217209" class="icon" viewBox="0 0 1024 1024" version="1.1" xmlns="http://www.w3.org/2000/svg" p-id="16068" xmlns:xlink="http://www.w3.org/1999/xlink" width="200" height="200"><path d="M264.32 734.272v-72.704c0-51.584 39.104-94.528 91.52-105.856a202.496 202.496 0 0 0 126.592 45.248c47.232 0 90.88-16.896 126.656-45.248 48.128 10.56 84.672 47.744 90.368 93.76h49.536c0-63.744-41.216-117.184-98.112-136.896a258.56 258.56 0 0 0 49.664-153.92c0-133.824-97.664-242.304-218.112-242.304-120.512 0-218.112 108.48-218.112 242.304 0 58.496 18.688 112.064 49.664 153.92a144.896 144.896 0 0 0-98.112 136.896v96.896a145.344 145.344 0 0 0 145.408 145.408h145.408v-48.448H383.232c-65.664 0-118.912-48.896-118.912-109.056z m48.448-375.68c0-107.072 75.968-193.856 169.664-193.856s169.6 86.784 169.6 193.856-75.968 193.92-169.6 193.92-169.664-86.848-169.664-193.92z" fill="#040000" p-id="16069"></path><path d="M869.632 770.048l-30.592-26.24-0.064 0.064-82.944-71.104-30.72 26.176 52.864 45.248-223.04 2.176v48.512l226.88-2.176-56.704 48.512 30.72 26.176 82.944-71.168 0.064 0.064z" fill="#040000" p-id="16070"></path></svg>