<?xml version="1.0" standalone="no"?><!DOCTYPE svg PUBLIC "-//W3C//DTD SVG 1.1//EN" "http://www.w3.org/Graphics/SVG/1.1/DTD/svg11.dtd"><svg t="1679646838865" class="icon" viewBox="0 0 1024 1024" version="1.1" xmlns="http://www.w3.org/2000/svg" p-id="960" xmlns:xlink="http://www.w3.org/1999/xlink" width="200" height="200"><path d="M371.2 496.128H152.832c-51.2 0-92.928-41.728-92.928-92.928V184.576c0-51.2 41.728-92.928 92.928-92.928H371.2c51.2 0 92.928 41.728 92.928 92.928v218.624c0 51.2-41.728 92.928-92.928 92.928zM152.832 153.344c-17.408 0-31.488 14.08-31.488 31.488v218.624c0 17.408 14.08 31.488 31.488 31.488H371.2c17.408 0 31.488-14.08 31.488-31.488V184.576c0-17.408-14.08-31.488-31.488-31.488H152.832v0.256zM371.2 964.096H152.832c-51.2 0-92.928-41.728-92.928-92.928V652.8c0-51.2 41.728-92.928 92.928-92.928H371.2c51.2 0 92.928 41.728 92.928 92.928v218.624c0 51.2-41.728 92.672-92.928 92.672zM152.832 621.312c-17.408 0-31.488 14.08-31.488 31.488v218.624c0 17.408 14.08 31.488 31.488 31.488H371.2c17.408 0 31.488-14.08 31.488-31.488V652.8c0-17.408-14.08-31.488-31.488-31.488H152.832z" fill="#070001" p-id="961"></path><path d="M673.792 494.592l-143.616-144.128c-33.536-33.792-33.536-88.576 0.256-122.112l144.128-143.616c33.792-33.536 88.576-33.536 122.112 0.256l143.616 144.128c33.536 33.792 33.536 88.576-0.256 122.112l-144.128 143.616c-33.792 33.536-88.576 33.536-122.112-0.256zM756.224 125.44c-11.264-11.52-29.952-11.52-41.216 0L570.88 269.056c-11.52 11.264-11.52 29.952 0 41.216l143.616 144.128c11.264 11.52 29.952 11.52 41.216 0l144.128-143.616c11.52-11.264 11.52-29.952 0-41.216L756.224 125.44z" fill="#D63123" p-id="962"></path><path d="M834.304 964.096l-218.624-0.512c-51.2 0-92.672-41.728-92.672-92.928l0.512-218.624c0-51.2 41.728-92.672 92.928-92.672l218.624 0.512c51.2 0 92.672 41.728 92.672 92.928l-0.512 218.624c-0.256 51.2-41.984 92.928-92.928 92.672z m-218.112-343.04c-17.408 0-31.488 14.08-31.488 31.232l-0.512 218.624c0 17.408 14.08 31.488 31.232 31.488l218.624 0.512c17.408 0 31.488-14.08 31.488-31.232l0.512-218.624c0-17.408-14.08-31.488-31.232-31.488l-218.624-0.512z" fill="#070001" p-id="963"></path></svg>