<?xml version="1.0" standalone="no"?><!DOCTYPE svg PUBLIC "-//W3C//DTD SVG 1.1//EN" "http://www.w3.org/Graphics/SVG/1.1/DTD/svg11.dtd"><svg t="1679646848493" class="icon" viewBox="0 0 1024 1024" version="1.1" xmlns="http://www.w3.org/2000/svg" p-id="1116" xmlns:xlink="http://www.w3.org/1999/xlink" width="200" height="200"><path d="M508.416 495.104c-124.672 0-226.048-101.376-226.048-226.048s101.376-226.048 226.048-226.048 226.048 101.376 226.048 226.048c0 124.672-101.376 226.048-226.048 226.048z m0-390.656c-90.88 0-164.608 73.728-164.608 164.608s73.728 164.608 164.608 164.608 164.608-73.728 164.608-164.608-73.728-164.608-164.608-164.608zM511.744 979.2c-139.264 0-242.944-8.96-316.672-27.392-99.84-24.832-150.528-69.632-150.528-133.376 0-62.72 53.248-132.096 142.08-186.112 92.672-56.32 208.128-87.04 325.12-87.04s232.448 30.976 325.12 87.04c89.088 54.016 142.08 123.648 142.08 186.112 0 63.488-50.688 108.544-150.528 133.376-73.728 18.432-177.408 27.392-316.672 27.392z m0-372.48c-105.984 0-210.176 27.904-293.376 78.336-68.352 41.472-112.64 93.952-112.64 133.632 0 31.744 35.072 56.576 103.936 73.728 68.864 17.152 167.68 25.6 301.824 25.6s232.96-8.448 301.824-25.6c69.12-17.152 103.936-41.984 103.936-73.728 0-39.68-44.288-92.16-112.64-133.632-82.944-50.688-186.88-78.336-292.864-78.336z" fill="#040000" p-id="1117"></path><path d="M763.648 778.24c-6.4 0-12.544-2.048-18.176-5.888-40.192-29.44-107.264-51.968-179.456-60.16-16.896-1.792-28.928-17.152-27.136-34.048 1.792-16.896 17.152-28.928 34.048-27.136 82.176 9.216 160.256 36.096 208.64 71.424 13.824 9.984 16.64 29.184 6.656 43.008-5.632 8.448-15.104 12.8-24.576 12.8z" fill="#D63123" p-id="1118"></path></svg>