<?xml version="1.0" standalone="no"?><!DOCTYPE svg PUBLIC "-//W3C//DTD SVG 1.1//EN" "http://www.w3.org/Graphics/SVG/1.1/DTD/svg11.dtd"><svg t="1678956257824" class="icon" viewBox="0 0 1024 1024" version="1.1" xmlns="http://www.w3.org/2000/svg" p-id="7262" xmlns:xlink="http://www.w3.org/1999/xlink" width="200" height="200"><path d="M892.8 131.2c24.6 24.7 38.2 57.4 38.2 92.3s-13.6 67.6-38.2 92.3l-30.1 30.1-184.6-184.6 30.1-30.1c50.9-50.9 133.7-50.9 184.6 0z m-235.2 50.6l184.6 184.6-315.5 315.4-184.5-184.6 315.4-315.4zM94.7 908.7l16.6-211.3c0.4-4.5 3.4-8.3 7.7-9.6l163.9-50 103.3 103.3-50 163.9c-1.3 4.3-5.1 7.3-9.6 7.7l-211.2 16.6M490.3 792c-3.4 3.4-8.9 3.4-12.3 0l-65.1-65.1-0.1-0.1-115.6-115.7-0.1-0.1-65.1-65c-1.6-1.6-2.6-3.8-2.6-6.2 0-2.3 0.9-4.5 2.6-6.2l46.6-46.6c1.6-1.6 3.8-2.6 6.2-2.6 2.3 0 4.5 0.9 6.2 2.6l246 246c1.6 1.6 2.6 3.8 2.6 6.2 0 2.3-0.9 4.5-2.6 6.2L490.3 792z" fill="#FFFFFF" p-id="7263"></path><path d="M76.7 890.7L95.8 682c0.4-4.5 3.4-8.2 7.7-9.6l162.4-51.5 100.5 100.5-51.5 162.4c-1.4 4.3-5.1 7.3-9.6 7.7L96.7 910.7" fill="#F7DF8A" p-id="7264"></path><path d="M469.1 770.8c-3.4 3.4-8.8 3.5-12.1 0.3l-62.3-62.3-0.1-0.1L284 598l-0.1-0.1-62.3-62.3c-1.6-1.6-2.4-3.7-2.4-6s1-4.4 2.6-6.1l46.6-46.6c1.6-1.6 3.8-2.6 6.1-2.6s4.4 0.8 6 2.4L516 712.1c1.6 1.6 2.4 3.7 2.4 6s-1 4.4-2.6 6.1l-46.7 46.6z" fill="#E87A66" p-id="7265"></path><path d="M875.1 113.6c23.7 23.7 36.4 55.6 35.7 89.8-0.7 34.2-14.6 66.6-39.3 91.2l-30.1 30.1L664 147.2l30.1-30.1c50.9-50.8 132.1-52.5 181-3.5z m-231.6 54.2l177.4 177.4-315.4 315.4-177.4-177.4 315.4-315.4z" fill="#65D5EF" p-id="7266"></path><path d="M568.5 739.2c0-10.1-3.9-19.6-11.1-26.7l-10.2-10.2 366-366c30.1-30.1 46.7-70.2 46.7-112.8 0-42.6-16.6-82.7-46.7-112.8-62.2-62.2-163.4-62.2-225.6 0l-366 366-10.2-10.2c-7.1-7.1-16.6-11.1-26.7-11.1-10.1 0-19.6 3.9-26.7 11.1l-46.6 46.6c-7.1 7.1-11.1 16.6-11.1 26.7 0 10.1 3.9 19.6 11.1 26.7l48.1 48.1-149.1 45.5c-15.8 4.8-26.9 18.6-28.2 35.1L64.1 928.1c-0.7 8.6 2.4 17.1 8.6 23.2 5.6 5.6 13.1 8.7 20.9 8.7 0.8 0 1.5 0 2.3-0.1l232.9-18.3c16.5-1.3 30.3-12.3 35.1-28.2l45.5-149.1 48.1 48.1c7.1 7.1 16.6 11.1 26.7 11.1 10.1 0 19.6-3.9 26.7-11.1l46.6-46.6c7.1-7 11-16.5 11-26.6z m324.2-608c24.6 24.7 38.2 57.4 38.2 92.3s-13.6 67.6-38.2 92.3l-30.1 30.1-184.5-184.6 30.1-30.1c50.9-50.9 133.7-50.9 184.5 0z m-235.1 50.6l184.6 184.6-315.5 315.4-184.5-184.6 315.4-315.4zM336.1 905c-1.3 4.3-5.1 7.3-9.6 7.7l-211.2 16.6 84.5-84.5c5.7-5.7 5.7-14.9 0-20.5-5.7-5.7-14.9-5.7-20.5 0l-84.5 84.5 16.6-211.3c0.4-4.5 3.4-8.3 7.7-9.6l163.9-50 103.3 103.3L336.1 905z m154.2-113c-3.4 3.4-8.9 3.4-12.3 0l-65.1-65.1-0.1-0.1-115.6-115.7-0.1-0.1-65.1-65c-1.6-1.6-2.6-3.8-2.6-6.2 0-2.3 0.9-4.5 2.6-6.2l46.6-46.6c1.6-1.6 3.8-2.6 6.2-2.6 2.3 0 4.5 0.9 6.2 2.6l246 246c1.6 1.6 2.6 3.8 2.6 6.2 0 2.3-0.9 4.5-2.6 6.2L490.3 792z" fill="#274359" p-id="7267"></path><path d="M223 801c2.8 2.8 6.5 4.3 10.3 4.3 3.7 0 7.4-1.4 10.3-4.3l24-24c5.7-5.7 5.7-14.9 0-20.5-5.7-5.7-14.9-5.7-20.5 0l-24 24c-5.7 5.6-5.7 14.8-0.1 20.5z" fill="#274359" p-id="7268"></path></svg>