<?xml version="1.0" encoding="UTF-8"?>
<svg width="1440px" height="1024px" viewBox="0 0 1440 1024" version="1.1" xmlns="http://www.w3.org/2000/svg" xmlns:xlink="http://www.w3.org/1999/xlink">
    <title>BG-6</title>
    <g id="BG-6" stroke="none" stroke-width="1" fill="none" fill-rule="evenodd">
        <rect fill="#FAFEFF" x="0" y="0" width="1440" height="1024"></rect>
        <g id="Shelves_BG" transform="translate(252.000000, 228.000000)" fill-rule="nonzero">
            <path d="M10,0 L463,0 C468.522847,0 473,4.4771525 473,10 L473,15 C473,20.5228475 468.522847,25 463,25 L10,25 C4.4771525,25 0,20.5228475 0,15 L0,10 C0,4.4771525 4.4771525,0 10,0 Z" id="Shape" fill="#E3EEFF"></path>
            <path d="M40,25 L63,25 L63,40 C63,45.5228475 58.5228475,50 53,50 L50,50 C44.4771525,50 40,45.5228475 40,40 L40,25 Z" id="Shape" fill="#CDE2FF"></path>
            <path d="M410,25 L433,25 L433,40 C433,45.5228475 428.522847,50 423,50 L420,50 C414.477153,50 410,45.5228475 410,40 L410,25 Z" id="Shape" fill="#CDE2FF"></path>
        </g>
        <g id="Shelves_BG" transform="translate(252.000000, 424.000000)" fill-rule="nonzero">
            <path d="M10,0 L463,0 C468.522847,0 473,4.4771525 473,10 L473,15 C473,20.5228475 468.522847,25 463,25 L10,25 C4.4771525,25 0,20.5228475 0,15 L0,10 C0,4.4771525 4.4771525,0 10,0 Z" id="Shape" fill="#E3EEFF"></path>
            <path d="M40,25 L63,25 L63,40 C63,45.5228475 58.5228475,50 53,50 L50,50 C44.4771525,50 40,45.5228475 40,40 L40,25 Z" id="Shape" fill="#CDE2FF"></path>
            <path d="M410,25 L433,25 L433,40 C433,45.5228475 428.522847,50 423,50 L420,50 C414.477153,50 410,45.5228475 410,40 L410,25 Z" id="Shape" fill="#CDE2FF"></path>
        </g>
        <g id="Picture_BG" transform="translate(473.000000, 99.000000)" fill-rule="nonzero">
            <polygon id="Shape" fill="#E3EEFF" points="22 22 85 22 85 107 22 107"></polygon>
            <path d="M10,10 L10,119 L96,119 L96,10 L10,10 Z M0,0 L106,0 L106,129 L0,129 L0,0 Z" id="Shape" fill="#CDE2FF"></path>
        </g>
        <g id="Picture_BG" transform="translate(345.000000, 99.000000)" fill-rule="nonzero">
            <polygon id="Shape" fill="#E3EEFF" points="22 22 85 22 85 107 22 107"></polygon>
            <path d="M10,10 L10,119 L96,119 L96,10 L10,10 Z M0,0 L106,0 L106,129 L0,129 L0,0 Z" id="Shape" fill="#CDE2FF"></path>
        </g>
        <g id="Plant_BG" transform="translate(608.000000, 95.000000)" fill-rule="nonzero">
            <polygon id="Shape" fill="#CDE2FF" points="7 84 77 84 67 133 17 133"></polygon>
            <circle id="Shape" fill="#E3EEFF" cx="42" cy="42" r="42"></circle>
            <path d="M10.569874,13.948088 C10.893899,12.2660787 12.306488,11 14,11 C15.693512,11 17.106101,12.2660787 17.430126,13.948088 C17.4533625,13.947609 17.4766546,13.9473684 17.5,13.9473684 C19.4329966,13.9473684 21,15.5968457 21,17.6315789 C21,19.6663122 19.4329966,21.3157895 17.5,21.3157895 C17.5,23.3505228 15.9329966,25 14,25 C12.0670034,25 10.5,23.3505228 10.5,21.3157895 C8.56700338,21.3157895 7,19.6663122 7,17.6315789 C7,15.5968457 8.56700338,13.9473684 10.5,13.9473684 C10.5233454,13.9473684 10.5466375,13.947609 10.569874,13.948088 L10.569874,13.948088 Z" id="Shape" fill="#CDE2FF"></path>
            <path d="M73.569874,18.948088 C73.893899,17.2660787 75.306488,16 77,16 C78.693512,16 80.106101,17.2660787 80.430126,18.948088 C80.4533625,18.947609 80.4766546,18.9473684 80.5,18.9473684 C82.4329966,18.9473684 84,20.5968457 84,22.6315789 C84,24.6663122 82.4329966,26.3157895 80.5,26.3157895 C80.5,28.3505228 78.9329966,30 77,30 C75.0670034,30 73.5,28.3505228 73.5,26.3157895 C71.5670034,26.3157895 70,24.6663122 70,22.6315789 C70,20.5968457 71.5670034,18.9473684 73.5,18.9473684 C73.5233454,18.9473684 73.5466375,18.947609 73.569874,18.948088 L73.569874,18.948088 Z" id="Shape" fill="#CDE2FF"></path>
            <path d="M45.569874,32.948088 C45.893899,31.2660787 47.306488,30 49,30 C50.693512,30 52.106101,31.2660787 52.430126,32.948088 C52.4533625,32.947609 52.4766546,32.9473684 52.5,32.9473684 C54.4329966,32.9473684 56,34.5968457 56,36.6315789 C56,38.6663122 54.4329966,40.3157895 52.5,40.3157895 C52.5,42.3505228 50.9329966,44 49,44 C47.0670034,44 45.5,42.3505228 45.5,40.3157895 C43.5670034,40.3157895 42,38.6663122 42,36.6315789 C42,34.5968457 43.5670034,32.9473684 45.5,32.9473684 C45.5233454,32.9473684 45.5466375,32.947609 45.569874,32.948088 L45.569874,32.948088 Z" id="Shape" fill="#CDE2FF"></path>
            <path d="M62.569874,60.948088 C62.893899,59.2660787 64.306488,58 66,58 C67.693512,58 69.106101,59.2660787 69.430126,60.948088 C69.4533625,60.947609 69.4766546,60.9473684 69.5,60.9473684 C71.4329966,60.9473684 73,62.5968457 73,64.6315789 C73,66.6663122 71.4329966,68.3157895 69.5,68.3157895 C69.5,70.3505228 67.9329966,72 66,72 C64.0670034,72 62.5,70.3505228 62.5,68.3157895 C60.5670034,68.3157895 59,66.6663122 59,64.6315789 C59,62.5968457 60.5670034,60.9473684 62.5,60.9473684 C62.5233454,60.9473684 62.5466375,60.947609 62.569874,60.948088 L62.569874,60.948088 Z" id="Shape" fill="#CDE2FF"></path>
            <path d="M20.569874,57.948088 C20.893899,56.2660787 22.306488,55 24,55 C25.693512,55 27.106101,56.2660787 27.430126,57.948088 C27.4533625,57.947609 27.4766546,57.9473684 27.5,57.9473684 C29.4329966,57.9473684 31,59.5968457 31,61.6315789 C31,63.6663122 29.4329966,65.3157895 27.5,65.3157895 C27.5,67.3505228 25.9329966,69 24,69 C22.0670034,69 20.5,67.3505228 20.5,65.3157895 C18.5670034,65.3157895 17,63.6663122 17,61.6315789 C17,59.5968457 18.5670034,57.9473684 20.5,57.9473684 C20.5233454,57.9473684 20.5466375,57.947609 20.569874,57.948088 L20.569874,57.948088 Z" id="Shape" fill="#CDE2FF"></path>
        </g>
        <g id="Divider_BG" transform="translate(793.000000, 109.000000)" fill="#E3EEFF" fill-rule="nonzero">
            <polygon id="Shape" points="0 0 10 0 10 777 0 777"></polygon>
        </g>
        <g id="Plant_BG" transform="translate(328.000000, 291.000000)" fill-rule="nonzero">
            <polygon id="Shape" fill="#CDE2FF" points="7 84 77 84 67 133 17 133"></polygon>
            <circle id="Shape" fill="#E3EEFF" cx="42" cy="42" r="42"></circle>
            <path d="M73.569874,18.948088 C73.893899,17.2660787 75.306488,16 77,16 C78.693512,16 80.106101,17.2660787 80.430126,18.948088 C80.4533625,18.947609 80.4766546,18.9473684 80.5,18.9473684 C82.4329966,18.9473684 84,20.5968457 84,22.6315789 C84,24.6663122 82.4329966,26.3157895 80.5,26.3157895 C80.5,28.3505228 78.9329966,30 77,30 C75.0670034,30 73.5,28.3505228 73.5,26.3157895 C71.5670034,26.3157895 70,24.6663122 70,22.6315789 C70,20.5968457 71.5670034,18.9473684 73.5,18.9473684 C73.5233454,18.9473684 73.5466375,18.947609 73.569874,18.948088 L73.569874,18.948088 Z" id="Shape" fill="#CDE2FF"></path>
            <path d="M45.569874,32.948088 C45.893899,31.2660787 47.306488,30 49,30 C50.693512,30 52.106101,31.2660787 52.430126,32.948088 C52.4533625,32.947609 52.4766546,32.9473684 52.5,32.9473684 C54.4329966,32.9473684 56,34.5968457 56,36.6315789 C56,38.6663122 54.4329966,40.3157895 52.5,40.3157895 C52.5,42.3505228 50.9329966,44 49,44 C47.0670034,44 45.5,42.3505228 45.5,40.3157895 C43.5670034,40.3157895 42,38.6663122 42,36.6315789 C42,34.5968457 43.5670034,32.9473684 45.5,32.9473684 C45.5233454,32.9473684 45.5466375,32.947609 45.569874,32.948088 L45.569874,32.948088 Z" id="Shape" fill="#CDE2FF"></path>
            <path d="M62.569874,60.948088 C62.893899,59.2660787 64.306488,58 66,58 C67.693512,58 69.106101,59.2660787 69.430126,60.948088 C69.4533625,60.947609 69.4766546,60.9473684 69.5,60.9473684 C71.4329966,60.9473684 73,62.5968457 73,64.6315789 C73,66.6663122 71.4329966,68.3157895 69.5,68.3157895 C69.5,70.3505228 67.9329966,72 66,72 C64.0670034,72 62.5,70.3505228 62.5,68.3157895 C60.5670034,68.3157895 59,66.6663122 59,64.6315789 C59,62.5968457 60.5670034,60.9473684 62.5,60.9473684 C62.5233454,60.9473684 62.5466375,60.947609 62.569874,60.948088 L62.569874,60.948088 Z" id="Shape" fill="#CDE2FF"></path>
            <path d="M20.569874,57.948088 C20.893899,56.2660787 22.306488,55 24,55 C25.693512,55 27.106101,56.2660787 27.430126,57.948088 C27.4533625,57.947609 27.4766546,57.9473684 27.5,57.9473684 C29.4329966,57.9473684 31,59.5968457 31,61.6315789 C31,63.6663122 29.4329966,65.3157895 27.5,65.3157895 C27.5,67.3505228 25.9329966,69 24,69 C22.0670034,69 20.5,67.3505228 20.5,65.3157895 C18.5670034,65.3157895 17,63.6663122 17,61.6315789 C17,59.5968457 18.5670034,57.9473684 20.5,57.9473684 C20.5233454,57.9473684 20.5466375,57.947609 20.569874,57.948088 L20.569874,57.948088 Z" id="Shape" fill="#CDE2FF"></path>
        </g>
        <g id="Books_BG" transform="translate(458.000000, 291.000000)" fill-rule="nonzero">
            <polygon id="Shape" fill="#CDE2FF" points="0 0 34 0 34 133 0 133"></polygon>
            <polygon id="Shape" fill="#CDE2FF" points="38 10 72 10 72 133 38 133"></polygon>
            <polygon id="Shape" fill="#CDE2FF" points="98 37 118.78461 25 175.28461 122.860871 154.5 134.860871"></polygon>
            <polygon id="Shape" fill="#E3EEFF" points="75 10 99 10 99 133 75 133"></polygon>
        </g>
        <g id="Storage_BG" transform="translate(176.000000, 559.000000)" fill-rule="nonzero">
            <path d="M20,0 L330,0 C341.045695,0 350,8.954305 350,20 L350,236 C350,247.045695 341.045695,256 330,256 L20,256 C8.954305,256 0,247.045695 0,236 L0,20 C0,8.954305 8.954305,0 20,0 Z" id="Shape" fill="#E3EEFF"></path>
            <path d="M45,25 L305,25 C316.045695,25 325,33.954305 325,45 L325,101 C325,112.045695 316.045695,121 305,121 L45,121 C33.954305,121 25,112.045695 25,101 L25,45 C25,33.954305 33.954305,25 45,25 Z" id="Shape" fill="#CDE2FF"></path>
            <path d="M45,140 L305,140 C316.045695,140 325,148.954305 325,160 L325,216 C325,227.045695 316.045695,236 305,236 L45,236 C33.954305,236 25,227.045695 25,216 L25,160 C25,148.954305 33.954305,140 45,140 Z" id="Shape" fill="#CDE2FF"></path>
            <circle id="Shape" fill="#E3EEFF" cx="175" cy="73" r="15"></circle>
            <circle id="Shape" fill="#E3EEFF" cx="175" cy="188" r="15"></circle>
            <path d="M10,255 L50,255 L38.8736616,280.034261 C35.9099813,286.702542 29.2972165,291 22,291 C15.372583,291 10,285.627417 10,279 L10,255 Z" id="Shape" fill="#CDE2FF"></path>
            <path d="M339,255 L339,279 C339,285.627417 333.627417,291 327,291 C319.702784,291 313.090019,286.702542 310.126338,280.034261 L299,255 L339,255 Z" id="Shape" fill="#CDE2FF"></path>
        </g>
        <g id="Presentation-board_BG" transform="translate(884.000000, 263.000000)" fill-rule="nonzero">
            <polygon id="Shape" fill="#E3EEFF" points="12 13 487 13 487 341 12 341"></polygon>
            <path d="M61,126 L231,126 C242.045695,126 251,134.954305 251,146 L251,272 C251,283.045695 242.045695,292 231,292 L61,292 C49.954305,292 41,283.045695 41,272 L41,146 C41,134.954305 49.954305,126 61,126 Z" id="Shape" fill="#FAFEFF"></path>
            <path d="M73.9680385,258.196016 C73.1165836,259.282934 71.5452223,259.473814 70.4583046,258.622359 C69.371387,257.770905 69.1805067,256.199543 70.0319615,255.112626 L114.168514,198.770474 C115.010134,197.696111 116.557851,197.495241 117.645841,198.319169 L159.352688,229.903524 L218.52049,161.366321 C219.422746,160.32119 221.001415,160.205367 222.046547,161.107623 C223.091678,162.009879 223.207501,163.588548 222.305245,164.633679 L161.605124,234.945849 C160.743439,235.943984 159.254667,236.101244 158.203458,235.30517 L116.587918,203.789961 L73.9680385,258.196016 Z" id="Shape" fill="#CDE2FF"></path>
            <path d="M276,183 L299,183 C304.522847,183 309,187.477153 309,193 L309,279 C309,284.522847 304.522847,289 299,289 L276,289 C270.477153,289 266,284.522847 266,279 L266,193 C266,187.477153 270.477153,183 276,183 Z" id="Shape" fill="#FAFEFF"></path>
            <path d="M47,56 L218,56 C221.313708,56 224,58.6862915 224,62 C224,65.3137085 221.313708,68 218,68 L47,68 C43.6862915,68 41,65.3137085 41,62 C41,58.6862915 43.6862915,56 47,56 Z" id="Shape" fill="#FAFEFF"></path>
            <path d="M46,89 L369,89 C371.761424,89 374,91.2385763 374,94 C374,96.7614237 371.761424,99 369,99 L46,99 C43.2385763,99 41,96.7614237 41,94 C41,91.2385763 43.2385763,89 46,89 Z" id="Shape" fill="#FAFEFF"></path>
            <path d="M330,233 L353,233 C358.522847,233 363,237.477153 363,243 L363,279 C363,284.522847 358.522847,289 353,289 L330,289 C324.477153,289 320,284.522847 320,279 L320,243 C320,237.477153 324.477153,233 330,233 Z" id="Shape" fill="#FAFEFF"></path>
            <path d="M384,193 L407,193 C412.522847,193 417,197.477153 417,203 L417,279 C417,284.522847 412.522847,289 407,289 L384,289 C378.477153,289 374,284.522847 374,279 L374,203 C374,197.477153 378.477153,193 384,193 Z" id="Shape" fill="#FAFEFF"></path>
            <path d="M438,203 L461,203 C466.522847,203 471,207.477153 471,213 L471,279 C471,284.522847 466.522847,289 461,289 L438,289 C432.477153,289 428,284.522847 428,279 L428,213 C428,207.477153 432.477153,203 438,203 Z" id="Shape" fill="#FAFEFF"></path>
            <path d="M13,0 L487,0 C494.179702,0 500,5.82029825 500,13 C500,20.1797017 494.179702,26 487,26 L13,26 C5.82029825,26 0,20.1797017 0,13 C0,5.82029825 5.82029825,0 13,0 Z" id="Shape" fill="#CDE2FF"></path>
            <path d="M240,488.053371 L240,365 C240,359.477153 244.477153,355 250,355 C255.522847,355 260,359.477153 260,365 L260,486.913405 C261.168179,487.401223 262.262579,488.120443 263.213203,489.071068 L316.953319,542.811183 C320.858562,546.716426 320.858562,553.048076 316.953319,556.953319 C313.048076,560.858562 306.716426,560.858562 302.811183,556.953319 L260,514.142136 L260,561 C260,566.522847 255.522847,571 250,571 C244.477153,571 240,566.522847 240,561 L240,516.166522 L199.213203,556.953319 C195.307961,560.858562 188.976311,560.858562 185.071068,556.953319 C181.165825,553.048076 181.165825,546.716426 185.071068,542.811183 L238.811183,489.071068 C239.186482,488.695769 239.58419,488.356537 240,488.053371 Z" id="Path" fill="#E3EEFF"></path>
            <path d="M13,336 L487,336 C494.179702,336 500,341.820298 500,349 C500,356.179702 494.179702,362 487,362 L13,362 C5.82029825,362 0,356.179702 0,349 C0,341.820298 5.82029825,336 13,336 Z" id="Shape" fill="#CDE2FF"></path>
        </g>
        <g id="Clock_BG" transform="translate(864.000000, 101.425082)" fill-rule="nonzero">
            <path d="M61,122 C27.3106303,122 0,94.6893697 0,61 C0,27.3106303 27.3106303,0 61,0 C94.6893697,0 122,27.3106303 122,61 C122,94.6893697 94.6893697,122 61,122 Z M61,111 C88.6142375,111 111,88.6142375 111,61 C111,33.3857625 88.6142375,11 61,11 C33.3857625,11 11,33.3857625 11,61 C11,88.6142375 33.3857625,111 61,111 Z" id="Shape" fill="#CDE2FF"></path>
            <path d="M61,52 L81,52 C83.7614237,52 86,54.2385763 86,57 C86,59.7614237 83.7614237,62 81,62 L61,62 C58.2385763,62 56,59.7614237 56,57 C56,54.2385763 58.2385763,52 61,52 Z" id="Shape" fill="#E3EEFF"></path>
            <path d="M61,52 C63.7614237,52 66,54.2385763 66,57 L66,87 C66,89.7614237 63.7614237,92 61,92 C58.2385763,92 56,89.7614237 56,87 L56,57 C56,54.2385763 58.2385763,52 61,52 Z" id="Shape" fill="#E3EEFF"></path>
            <path d="M47.6559115,82.6227828 C47.4233856,82.7717336 47.1141377,82.7039826 46.9651869,82.4714567 C46.8162362,82.2389309 46.8839872,81.929683 47.116513,81.7807322 C52.4807811,78.3445041 56.8848287,77.6417921 60.2791599,79.7628056 C60.5133419,79.9091388 60.5845575,80.2176073 60.4382243,80.4517893 C60.2918911,80.6859713 59.9834226,80.7571869 59.7492406,80.6108537 C56.7434344,78.7326175 52.7288235,79.3731908 47.6559115,82.6227828 Z" id="Path" fill="#FFFFFF"></path>
        </g>
    </g>
</svg>